<svg viewBox="0 0 32 32" fill="none" xmlns="http://www.w3.org/2000/svg">
<circle cx="16" cy="16" r="16" fill="white"/>
<path fill-rule="evenodd" clip-rule="evenodd" d="M16 32C24.8366 32 32 24.8366 32 16C32 7.16344 24.8366 0 16 0C7.16344 0 0 7.16344 0 16C0 18.6472 0.642684 21.1435 1.78046 23.3432C1.85358 20.5645 1.85828 18.8431 1.84688 17.761C1.84553 17.6242 1.84084 17.2444 1.8556 16.7326C1.88176 15.7961 1.91799 14.6824 2.20914 13.3642C2.34465 12.7497 2.48486 12.3029 2.61501 11.9171C3.1034 10.4688 3.82792 9.1465 4.81476 7.97317C4.82616 7.95975 4.84092 7.94834 4.85568 7.93694C4.86306 7.93157 4.87044 7.92553 4.87715 7.9195C4.99924 7.72159 5.16361 7.55857 5.32662 7.3969C5.36822 7.3553 5.40981 7.31371 5.45073 7.27212C6.13769 6.56771 6.91119 5.97132 7.75245 5.46281C7.78398 5.44335 7.81887 5.4286 7.85375 5.41451C7.86985 5.4078 7.88528 5.40109 7.90138 5.39371C8.31329 5.11262 8.76679 4.91002 9.22365 4.72084C9.78918 4.48671 10.3587 4.25929 10.9665 4.15195C11.3288 4.02918 11.7038 3.97015 12.0795 3.91111C12.1781 3.89568 12.2774 3.88025 12.376 3.86348C12.9221 3.7709 13.4762 3.75212 14.0243 3.75883C14.9997 3.77157 15.9772 3.80579 16.9399 4.00704C16.9956 4.01845 17.0519 4.03052 17.1083 4.04193C17.4833 4.11908 17.8583 4.1969 18.2219 4.32168C18.8988 4.48671 19.5341 4.76176 20.1627 5.05694C20.7343 5.32528 21.2468 5.68486 21.76 6.04512L21.7828 6.06122C22.0069 6.16319 22.188 6.32553 22.3671 6.48654C22.406 6.52143 22.4456 6.55698 22.4852 6.59119C23.2359 7.24528 23.8927 7.98457 24.4173 8.83388C24.5132 8.98885 24.5997 9.14985 24.687 9.31019C24.7265 9.38398 24.7668 9.45711 24.807 9.53023C25.1747 10.1521 25.4115 10.8263 25.6107 11.516C25.8918 12.4887 26.0173 13.4829 25.9958 14.4946C25.9649 15.947 25.6376 17.331 24.9996 18.6392C24.9788 18.6821 24.954 18.7223 24.9291 18.7633C24.9184 18.7807 24.907 18.7982 24.8969 18.8163C24.6105 19.3577 24.2999 19.8843 23.9108 20.3592C23.8625 20.4183 23.8504 20.478 23.8517 20.5471C24.0188 21.2401 24.1583 21.9398 24.2502 22.6475C24.3354 23.303 24.4106 23.9584 24.4475 24.6192C24.4649 24.9338 24.4609 24.8621 24.4777 25.0801C24.5568 26.0924 24.532 27.1094 24.5655 28.1244C24.5662 28.1405 24.5662 28.1868 24.5387 28.2103C24.5119 28.2331 24.4703 28.2271 24.4307 28.2224C24.4146 28.2204 24.3985 28.2184 24.3844 28.2184C23.5854 28.2217 22.7857 28.2237 21.9861 28.219C21.8418 28.2184 21.6969 28.2197 21.552 28.2217C21.2287 28.2251 20.9053 28.2291 20.5826 28.2043C20.5625 28.1674 20.5571 28.1278 20.5565 28.0889C20.5357 27.9594 20.5397 27.8279 20.5444 27.6971C20.5464 27.6361 20.5484 27.5757 20.5478 27.5153C20.5384 26.3467 20.4927 25.1794 20.378 24.0161C20.3592 23.8303 20.3371 23.6444 20.3143 23.4593C20.3036 23.3741 20.2935 23.2896 20.2834 23.2044C20.1647 23.2151 20.0587 23.2627 19.952 23.3104C19.8601 23.3513 19.7682 23.3922 19.6689 23.4096C18.1105 24.004 16.4917 24.2462 14.834 24.155C13.1254 24.061 11.6542 23.4345 10.5707 22.0498C10.5566 22.0317 10.5452 22.0109 10.5338 21.9901C10.5285 21.9807 10.5238 21.9713 10.5184 21.9626C9.98105 21.2501 9.66709 20.4538 9.54633 19.567C9.41551 18.6063 9.51346 17.6805 9.84889 16.7769C10.0018 16.3629 10.1937 15.9671 10.4708 15.6183C11.0712 14.7119 11.8849 14.0632 12.8805 13.6433C13.5561 13.3582 14.2631 13.2132 14.9991 13.1683C16.2999 13.0878 17.5517 13.277 18.7592 13.7593C19.9353 14.2296 20.9154 14.9702 21.7124 15.9537C21.8311 15.7914 21.8579 15.6008 21.8841 15.4123C21.8901 15.3714 21.8955 15.3305 21.9022 15.2902C22.1196 13.9794 21.9257 12.7275 21.3374 11.5368C21.3233 11.5079 21.3125 11.4777 21.3018 11.4475C21.2964 11.4328 21.2911 11.4174 21.285 11.4026C21.0019 10.9162 20.6893 10.454 20.3009 10.0421C20.0768 9.80528 19.8266 9.60201 19.5757 9.39874C19.4818 9.32226 19.3872 9.24579 19.2946 9.16797C18.8176 8.88084 18.3346 8.60713 17.814 8.40319C17.4323 8.25291 17.0385 8.14826 16.6447 8.04361C16.5488 8.01811 16.4528 7.99262 16.3569 7.96646C15.5968 7.83698 14.8327 7.75379 14.0599 7.75983C13.2917 7.76587 12.5384 7.85979 11.7984 8.06641C11.7629 8.07648 11.7253 8.08117 11.6884 8.0852C11.6709 8.08721 11.6542 8.08922 11.6367 8.09191C11.0068 8.30256 10.4037 8.57627 9.81333 8.8795C9.02977 9.3491 8.37233 9.96159 7.79539 10.6653C7.77795 10.6868 7.75581 10.7049 7.73434 10.723C7.72428 10.7311 7.71421 10.7398 7.70482 10.7485C7.67128 10.7988 7.63774 10.8485 7.60419 10.8988C7.34323 11.2886 7.08226 11.6783 6.8743 12.1003C6.32017 13.2273 6.00688 14.4195 5.91564 15.6693C5.82977 16.852 5.83245 18.0361 5.83581 19.2208C5.83715 19.7461 5.83849 20.2707 5.83245 20.7953C5.82574 21.336 5.82507 22.6885 5.80226 24.0604C5.78482 25.1156 5.75128 26.5238 5.68218 28.2184C6.72537 29.1032 8.587 30.455 11.2449 31.2842C11.2456 31.2815 13.5936 32 16 32ZM5.75195 22.5013H5.75329V22.4993C5.75329 22.5 5.75262 22.5 5.75195 22.5013ZM6.18734 7.94163C6.21149 7.95774 6.22826 7.9792 6.23899 8.00537C6.22222 7.98323 6.20478 7.96243 6.18734 7.94163ZM17.4356 8.10264C17.4571 8.09727 17.4732 8.08788 17.486 8.07447C17.4819 8.09862 17.4678 8.11203 17.4356 8.10264ZM11.1322 20.9805C11.1564 20.9684 11.1805 20.957 11.2054 20.9456C11.1859 20.963 11.1597 20.9731 11.1322 20.9805ZM18.0669 19.7387C18.1105 19.7206 18.1541 19.7031 18.1971 19.6844C18.2756 19.6508 18.3547 19.62 18.4345 19.5898C18.6747 19.4972 18.9156 19.4046 19.1175 19.2342C18.4191 17.9596 17.3518 17.2626 15.8967 17.1626C15.0863 17.1069 14.3188 17.176 13.7513 17.861C13.7392 17.8871 13.7265 17.9133 13.7144 17.9395C13.6862 17.9992 13.658 18.0582 13.6332 18.1192C13.4259 18.6137 13.4172 19.0987 13.705 19.569C14.0491 19.9601 14.4966 20.1083 15.0018 20.1519C15.3137 20.1788 15.6223 20.1587 15.9309 20.1392C15.9638 20.1372 15.9973 20.1352 16.0302 20.1325C16.7031 20.0902 17.3665 19.9876 18.0065 19.7629C18.0273 19.7548 18.0468 19.7468 18.0669 19.7387ZM22.8689 24.9265C22.8877 24.9077 22.9327 24.9003 22.9669 24.901C22.934 24.9104 22.9011 24.9184 22.8689 24.9265Z" fill="#1B83A6"/>
</svg>
